<?xml version="1.0" standalone="no"?>
<!DOCTYPE svg PUBLIC "-//W3C//DTD SVG 20010904//EN"
 "http://www.w3.org/TR/2001/REC-SVG-20010904/DTD/svg10.dtd">
<svg version="1.0" xmlns="http://www.w3.org/2000/svg"
 width="2048.000000pt" height="2048.000000pt" viewBox="0 0 2048.000000 2048.000000"
 preserveAspectRatio="xMidYMid meet">
<defs>
<linearGradient id="iconGradient" x1="100%" y1="100%" x2="0%" y2="0%">
  <stop offset="0%" style="stop-color:#F28E33;stop-opacity:1" />
  <stop offset="82%" style="stop-color:#A62CA3;stop-opacity:1" />
  <stop offset="100%" style="stop-color:#642891;stop-opacity:1" />
</linearGradient>
</defs>
<g transform="translate(-307.2, 2415.2) scale(0.130000,-0.130000)" fill="url(#iconGradient)" stroke="none">
<path d="M4643 15391 c-202 -55 -320 -171 -381 -376 -13 -44 -16 -534 -19
-4065 -5 -4458 -10 -4090 62 -4236 64 -131 223 -251 376 -284 43 -10 153 -10
490 -1 1461 38 2625 -166 3634 -636 318 -148 542 -276 905 -519 184 -122 294
-179 400 -204 71 -17 200 -18 270 -1 81 19 259 109 387 195 989 666 1896 980
3243 1125 364 40 521 45 1167 43 413 -2 638 1 670 8 182 41 340 200 387 391
15 59 16 420 16 4090 0 4431 5 4071 -61 4206 -65 135 -177 218 -354 264 -75
19 -98 20 -365 14 -844 -18 -1393 -64 -2035 -171 -325 -54 -706 -140 -1015
-230 -901 -262 -1571 -609 -2054 -1064 -356 -337 -584 -679 -754 -1135 -109
-293 -161 -512 -209 -875 -15 -110 -17 -313 -20 -1726 l-4 -1602 103 -127 c57
-70 168 -210 248 -310 80 -101 197 -247 261 -326 64 -79 176 -218 249 -309 73
-91 137 -170 144 -177 8 -9 11 64 11 285 0 163 4 504 9 757 5 253 10 1090 11
1860 2 1482 3 1508 50 1773 36 202 61 297 78 297 16 0 77 -91 366 -545 78
-124 224 -352 324 -508 100 -155 211 -329 247 -385 35 -56 118 -185 184 -287
218 -338 478 -744 544 -850 146 -234 327 -339 583 -340 118 0 222 25 322 77
102 54 178 134 258 273 98 171 265 457 355 610 44 74 109 185 144 245 35 61
112 191 170 290 59 99 174 295 255 435 82 140 170 291 196 335 80 137 375 646
484 835 121 209 180 303 190 301 7 -1 10 -913 10 -2713 l0 -2713 -180 -2
c-743 -8 -1511 -84 -2120 -209 -384 -79 -810 -202 -1175 -339 -362 -135 -850
-372 -1164 -564 l-59 -36 -16 25 c-9 13 -122 160 -251 326 -129 166 -269 346
-310 400 -41 54 -138 180 -215 279 -77 100 -187 243 -245 319 -58 76 -169 220
-248 320 -79 99 -182 231 -229 291 -48 61 -119 151 -158 200 -39 50 -163 209
-275 355 -112 146 -225 292 -251 325 -47 59 -158 200 -420 536 -206 265 -597
770 -726 939 -40 52 -124 162 -188 244 -64 83 -112 154 -108 160 4 6 86 97
183 201 97 105 208 224 245 265 38 41 218 235 400 430 436 467 687 738 814
880 58 63 195 212 305 330 253 271 512 551 595 644 35 39 160 173 278 298 117
125 213 231 213 236 0 13 -344 201 -570 311 -525 255 -1104 449 -1794 600
-470 104 -885 165 -1411 210 -449 38 -530 42 -955 47 -399 4 -429 3 -497 -15z
m927 -941 c281 -15 445 -29 775 -65 380 -42 599 -74 860 -126 414 -84 1012
-254 1039 -297 5 -8 -368 -411 -1053 -1137 -130 -137 -349 -369 -486 -515
-379 -401 -1099 -1173 -1263 -1353 -46 -51 -91 -102 -99 -114 -8 -13 -19 -21
-23 -18 -9 5 -13 3612 -4 3626 7 11 36 11 254 -1z m9372 -14 c-2 -10 -21 -46
-41 -80 -42 -67 -357 -598 -641 -1081 -101 -170 -268 -454 -373 -630 -104
-176 -235 -396 -290 -490 -55 -93 -119 -201 -142 -240 -23 -38 -86 -146 -140
-240 -54 -93 -152 -260 -218 -370 -66 -110 -162 -274 -214 -365 -52 -91 -98
-169 -102 -173 -9 -9 -185 256 -485 733 -116 185 -129 205 -451 705 -250 388
-399 622 -607 954 -125 198 -123 171 -13 256 340 261 763 474 1270 638 244 80
291 92 590 162 421 98 1036 186 1575 225 80 6 165 12 190 14 81 6 95 3 92 -18z
m-8636 -4513 c104 -135 270 -350 370 -477 99 -127 234 -301 299 -386 148 -193
681 -880 910 -1175 194 -249 359 -463 489 -634 48 -64 132 -173 186 -243 54
-69 97 -128 94 -130 -2 -3 -55 13 -116 34 -514 179 -1071 308 -1628 377 -451
57 -952 91 -1330 91 -129 0 -241 4 -248 8 -10 7 -13 203 -17 973 l-3 964 107
110 c123 126 344 363 544 583 76 84 142 152 147 152 4 0 93 -111 196 -247z"/>
</g>
</svg>
